<svg width="155" height="54" viewBox="0 0 155 54" fill="none" xmlns="http://www.w3.org/2000/svg">
<path d="M0.592 10.8V1.512H17.944V54H7.576V10.8H0.592ZM31.0699 42.624C35.6779 38.784 39.3499 35.592 42.0859 33.048C44.8219 30.456 47.1019 27.768 48.9259 24.984C50.7499 22.2 51.6619 19.464 51.6619 16.776C51.6619 14.328 51.0859 12.408 49.9339 11.016C48.7819 9.624 47.0059 8.928 44.6059 8.928C42.2059 8.928 40.3579 9.744 39.0619 11.376C37.7659 12.96 37.0939 15.144 37.0459 17.928H27.2539C27.4459 12.168 29.1499 7.8 32.3659 4.824C35.6299 1.848 39.7579 0.359995 44.7499 0.359995C50.2219 0.359995 54.4219 1.824 57.3499 4.752C60.2779 7.632 61.7419 11.448 61.7419 16.2C61.7419 19.944 60.7339 23.52 58.7179 26.928C56.7019 30.336 54.3979 33.312 51.8059 35.856C49.2139 38.352 45.8299 41.376 41.6539 44.928H62.8939V53.28H27.3259V45.792L31.0699 42.624ZM69.2457 27.072C69.2457 18.768 70.7337 12.264 73.7097 7.56C76.7337 2.856 81.7257 0.503998 88.6857 0.503998C95.6457 0.503998 100.614 2.856 103.59 7.56C106.614 12.264 108.126 18.768 108.126 27.072C108.126 35.424 106.614 41.976 103.59 46.728C100.614 51.48 95.6457 53.856 88.6857 53.856C81.7257 53.856 76.7337 51.48 73.7097 46.728C70.7337 41.976 69.2457 35.424 69.2457 27.072ZM98.1897 27.072C98.1897 23.52 97.9497 20.544 97.4697 18.144C97.0377 15.696 96.1257 13.704 94.7337 12.168C93.3897 10.632 91.3737 9.864 88.6857 9.864C85.9977 9.864 83.9577 10.632 82.5657 12.168C81.2217 13.704 80.3097 15.696 79.8297 18.144C79.3977 20.544 79.1817 23.52 79.1817 27.072C79.1817 30.72 79.3977 33.792 79.8297 36.288C80.2617 38.736 81.1737 40.728 82.5657 42.264C83.9577 43.752 85.9977 44.496 88.6857 44.496C91.3737 44.496 93.4137 43.752 94.8057 42.264C96.1977 40.728 97.1097 38.736 97.5417 36.288C97.9737 33.792 98.1897 30.72 98.1897 27.072Z" fill="#F1F1F1"/>
<path d="M154.601 32.76H140.993V46.728H131.489V32.76H117.881V23.976H131.489V10.008H140.993V23.976H154.601V32.76Z" fill="#8ED2A9"/>
</svg>
